P3
20 16
255
15 20 10  16 16 20  31 19 16  10 15 18  41 34 15  59 46 26  53 45 36  102 68 35  106 70 45  118 77 46  76 50 46  56 42 32  42 34 29  29 28 26  47 48 24  65 36 43  63 35 30  81 61 33  114 89 41  72 55 63
21 13 42  15 11 16  39 38 14  29 23 31  26 25 22  71 56 21  36 30 41  94 52 27  90 69 30  60 35 53  102 50 25  64 38 25  13 13 21  23 21 14  35 30 18  80 70 24  83 72 52  99 93 56  75 70 68  46 42 59
43 39 29  50 43 35  69 59 34  35 27 47  18 18 26  72 46 14  54 25 39  144 104 21  65 47 74  8 24 51  64 46 23  26 22 33  13 16 19  13 16 15  29 22 16  69 73 17  77 83 56  68 61 69  60 57 48  56 53 47
64 63 38  51 47 52  54 53 37  32 33 43  32 33 27  19 13 28  64 36 17  135 105 22  62 32 79  18 16 35  19 24 17  29 28 20  29 29 23  34 33 23  33 26 27  56 52 21  79 83 40  77 72 66  73 66 56  72 61 48
89 73 45  56 35 58  20 19 32  23 25 22  24 25 21  77 55 22  94 71 35  107 96 46  69 64 76  57 39 55  57 48 32  47 39 37  49 50 30  78 76 37  61 56 55  56 45 41  117 101 33  91 84 82  69 65 68  39 37 48
64 49 31  43 35 36  7 13 28  11 12 17  16 22 15  57 48 20  69 58 35  66 59 43  73 55 48  96 62 43  90 57 37  70 53 35  64 56 40  62 58 42  50 45 45  50 40 33  93 90 29  96 90 72  33 30 76  25 24 25
35 28 22  37 25 22  19 19 23  18 18 19  29 23 17  27 14 21  54 31 20  83 72 26  118 74 56  150 87 38  80 54 41  66 44 37  69 51 36  34 36 36  29 28 33  50 34 24  86 77 25  65 68 57  28 24 59  45 38 21
45 38 29  39 36 30  31 27 29  30 27 23  55 25 22  37 6 24  73 54 15  88 83 42  130 94 64  97 59 62  44 34 44  29 37 34  40 29 35  66 34 23  44 34 18  73 56 24  69 52 39  16 14 41  49 41 14  47 41 30
56 48 31  44 39 36  19 21 32  12 15 19  18 15 15  42 22 15  31 20 22  23 22 20  89 68 17  72 51 50  45 28 45  32 28 32  26 34 31  111 58 29  52 34 30  48 44 21  23 21 33  8 13 19  29 30 12  13 15 26
45 40 15  43 39 30  14 16 31  24 23 15  26 28 20  39 36 25  37 24 31  37 29 19  75 63 22  62 51 47  55 25 45  31 23 28  19 26 27  57 34 22  18 22 24  26 27 20  9 14 23  17 21 14  15 20 19  7 12 21
19 23 13  25 29 20  48 36 26  51 40 23  26 26 30  22 20 24  15 14 18  28 25 15  79 72 19  62 46 56  25 20 41  27 17 17  18 22 18  27 28 19  63 60 23  70 70 47  33 37 57  12 15 32  20 22 14  15 21 21
40 42 20  20 23 36  123 89 19  92 67 60  29 31 51  101 75 26  49 40 53  9 14 32  24 24 14  23 24 20  42 38 20  30 32 33  54 61 25  45 44 48  52 45 36  51 54 34  38 44 45  14 19 37  16 16 19  23 26 15
46 45 24  42 38 37  65 59 30  80 86 48  67 66 72  74 57 55  68 56 39  30 27 42  36 35 22  39 36 28  60 52 28  58 59 43  68 77 46  42 46 63  38 44 40  27 33 36  56 49 30  32 31 38  2 5 28  25 25 7
25 30 21  98 92 25  54 54 76  76 82 47  44 47 68  30 29 43  49 43 22  30 28 33  43 44 24  41 38 35  39 35 33  62 59 26  36 42 46  34 30 37  42 45 24  39 41 36  72 63 34  30 31 47  16 20 28  27 32 18
53 56 27  108 108 41  78 66 90  47 44 59  24 26 38  33 30 24  56 57 25  89 80 45  119 97 61  57 53 69  32 36 49  51 50 28  29 33 39  36 35 28  17 20 29  15 19 18  44 39 18  50 56 30  35 43 45  26 29 36
70 59 25  86 87 40  58 62 72  34 31 54  38 33 28  34 34 28  77 71 28  135 111 54  136 119 79  37 33 91  50 54 32  69 71 41  32 34 59  17 19 29  29 29 19  59 49 23  55 39 36  39 36 29  26 31 30  15 19 28